Coordinates
version=1
nRows=65
nColumns=12
inDegrees=yes

Units are S.I. units (second, meters, Newtons, ...)
Angles are in degrees

endheader
time	SC_y	SC_z	SC_x	AC_y	AC_z	AC_x	GH_y	GH_z	GH_yy	EL_x	PS_y
       0.0              -26.47          20.74          57.24          66.36         -17.82          -2.06          172.3          41.01          103.6           80.3          121.7
   0.02929              -26.46          20.74          57.24          66.36         -17.82         -2.062          172.3           41.0          103.6           80.3          121.7
   0.05858              -26.46          20.73          57.25          66.36         -17.82         -2.064          172.3          40.99          103.6          80.29          121.7
   0.08787              -26.46          20.73          57.25          66.36         -17.82         -2.066          172.2          40.98          103.5          80.29          121.7
    0.1172              -26.46          20.73          57.26          66.35         -17.82         -2.069          172.2          40.97          103.5          80.28          121.7
    0.1465              -26.45          20.72          57.26          66.35         -17.82         -2.071          172.2          40.96          103.5          80.28          121.7
    0.1757              -26.45          20.72          57.27          66.35         -17.82         -2.074          172.2          40.95          103.5          80.27          121.6
     0.205              -26.45          20.72          57.27          66.34         -17.82         -2.077          172.1          40.93          103.4          80.27          121.6
    0.2343              -26.45          20.71          57.28          66.34         -17.82          -2.08          172.1          40.92          103.4          80.26          121.6
    0.2636              -26.44          20.71          57.28          66.34         -17.82         -2.084          172.1          40.91          103.3          80.25          121.6
    0.2929              -26.44           20.7          57.29          66.33         -17.82         -2.088          172.0          40.89          103.3          80.25          121.6
    0.3222              -26.44           20.7           57.3          66.33         -17.82         -2.092          172.0          40.87          103.3          80.24          121.6
    0.3515              -26.43          20.69           57.3          66.32         -17.82         -2.096          172.0          40.86          103.2          80.23          121.5
    0.3808              -26.43          20.68          57.31          66.32         -17.82         -2.101          171.9          40.84          103.2          80.22          121.5
    0.4101              -26.42          20.68          57.32          66.31         -17.82         -2.106          171.9          40.82          103.1          80.21          121.5
    0.4394              -26.42          20.67          57.33           66.3         -17.82         -2.111          171.8           40.8          103.0           80.2          121.5
    0.4686              -26.41          20.66          57.34           66.3         -17.82         -2.117          171.8          40.77          103.0          80.19          121.4
    0.4979              -26.41          20.65          57.35          66.29         -17.82         -2.124          171.7          40.74          102.9          80.18          121.4
    0.5272               -26.4          20.64          57.36          66.28         -17.82         -2.131          171.7          40.72          102.8          80.16          121.3
    0.5565               -26.4          20.63          57.38          66.27         -17.82         -2.139          171.6          40.68          102.7          80.15          121.3
    0.5858              -26.39          20.62          57.39          66.26         -17.82         -2.147          171.5          40.65          102.6          80.13          121.3
    0.6151              -26.38           20.6          57.41          66.25         -17.82         -2.157          171.4          40.61          102.5          80.11          121.2
    0.6444              -26.37          20.59          57.43          66.24         -17.82         -2.167          171.3          40.57          102.4          80.09          121.2
    0.6737              -26.36          20.57          57.45          66.22         -17.82         -2.178          171.2          40.52          102.3          80.07          121.1
     0.703              -26.35          20.55          57.47          66.21         -17.83         -2.191          171.1          40.47          102.1          80.04          121.0
    0.7323              -26.34          20.53          57.49          66.19         -17.83         -2.205          171.0          40.41          102.0          80.01          120.9
    0.7615              -26.32          20.51          57.52          66.17         -17.83         -2.221          170.8          40.35          101.8          79.98          120.9
    0.7908              -26.31          20.49          57.55          66.15         -17.83         -2.239          170.7          40.27          101.6          79.95          120.8
    0.8201              -26.29          20.46          57.59          66.13         -17.83          -2.26          170.5          40.19          101.4          79.91          120.7
    0.8494              -26.27          20.43          57.63           66.1         -17.83         -2.283          170.3           40.1          101.1          79.86          120.5
    0.8787              -26.24          20.39          57.68          66.07         -17.83         -2.309          170.1          39.99          100.8          79.81          120.4
     0.908              -26.22          20.35          57.73          66.03         -17.83         -2.339          169.8          39.87          100.5          79.75          120.2
    0.9373              -26.19           20.3          57.79          65.99         -17.83         -2.374          169.5          39.73          100.1          79.68          120.0
    0.9666              -26.15          20.24          57.86          65.94         -17.84         -2.415          169.1          39.56          99.61           79.6          119.8
    0.9959              -26.11          20.17          57.94          65.88         -17.84         -2.462          168.7          39.37          99.08          79.51          119.6
     1.025              -26.06          20.09          58.04          65.82         -17.84         -2.518          168.2          39.14          98.45           79.4          119.3
     1.054               -26.0           20.0          58.16          65.74         -17.85         -2.585          167.6          38.87           97.7          79.27          118.9
     1.084              -25.93          19.89           58.3          65.64         -17.85         -2.664          166.9          38.55           96.8          79.11          118.5
     1.113              -25.84          19.75          58.47          65.53         -17.85         -2.761          166.0          38.15          95.71          78.93          118.0
     1.142              -25.74          19.58          58.67          65.39         -17.86         -2.878          165.0          37.67          94.38          78.69          117.4
     1.172              -25.61          19.38          58.93          65.21         -17.87         -3.024          163.7          37.08          92.74          78.41          116.6
     1.201              -25.45          19.12          59.24          64.99         -17.88         -3.205          162.1          36.35          90.69          78.05          115.6
      1.23              -25.25           18.8          59.64          64.72         -17.89         -3.433          160.0          35.42          88.12          77.61          114.4
     1.259              -24.99          18.39          60.15          64.37          -17.9         -3.723          157.4          34.24          84.84          77.04          112.9
     1.289              -24.66          17.87           60.8          63.93         -17.92         -4.095          154.1          32.73          80.65          76.31          110.9
     1.318              -24.24          17.19          61.63          63.36         -17.95         -4.571          149.9          30.79          75.27          75.37          108.3
     1.347               -23.7          16.33           62.7          62.63         -17.98          -5.18          144.4          28.31           68.4          74.18          105.1
     1.377              -23.03          15.25          64.03          61.72         -18.02         -5.945          137.6           25.2          59.76          72.67          101.0
     1.406               -22.2          13.93          65.67           60.6         -18.06         -6.878          129.3          21.41          49.23          70.84          96.04
     1.435              -21.24           12.4          67.56          59.31         -18.12         -7.959          119.6          17.01          37.02          68.72          90.27
     1.465              -20.21          10.75           69.6          57.91         -18.18          -9.13          109.1          12.25           23.8          66.42          84.03
     1.494              -19.17          9.096          71.65          56.51         -18.24          -10.3          98.68          7.485          10.59          64.13          77.79
     1.523              -18.22          7.568          73.54          55.21          -18.3         -11.38          89.03          3.087         -1.621           62.0          72.03
     1.552              -17.39           6.25          75.17           54.1         -18.34         -12.32           80.7         -0.707         -12.15          60.17          67.06
     1.582              -16.71          5.168          76.51          53.18         -18.38         -13.08          73.86          -3.82         -20.79          58.67          62.98
     1.611              -16.17          4.308          77.58          52.45         -18.41         -13.69          68.42         -6.296         -27.66          57.48          59.73
      1.64              -15.75          3.635          78.41          51.88         -18.44         -14.17          64.17         -8.235         -33.05          56.54          57.19
      1.67              -15.42           3.11          79.06          51.44         -18.46         -14.54          60.85         -9.745         -37.24          55.81          55.21
     1.699              -15.17            2.7          79.57          51.09         -18.47         -14.83          58.26         -10.93         -40.51          55.24          53.66
     1.728              -14.96          2.377          79.96          50.82         -18.48         -15.06          56.22         -11.85         -43.09           54.8          52.45
     1.757               -14.8          2.121          80.28           50.6         -18.49         -15.24           54.6         -12.59         -45.14          54.44          51.48
     1.787              -14.68          1.916          80.54          50.43          -18.5         -15.38          53.31         -13.18         -46.78          54.16          50.71
     1.816              -14.57           1.75          80.74          50.29         -18.51          -15.5          52.25         -13.66          -48.1          53.92          50.08
     1.845              -14.49          1.613          80.91          50.17         -18.51          -15.6          51.39         -14.05         -49.19          53.73          49.56
     1.875              -14.42          1.501          81.05          50.08         -18.51         -15.68          50.68         -14.38         -50.09          53.58          49.14
